PathFileType	4	(X/Y/Z)	C:/Users/beibeiliu/ov580/test_trc/User2\sequence.36_training_dense_right.trc
DataRate	CameraRate	NumFrames	NumMarkers	Units	OrigDataRate	OrigDataStartFrame	OrigNumFrames
120	120	22	19	mm	120	251	500
Frame#	Time	ThumbCMC			ThumbMCP			ThumbIP			ThumbTip			IndexMCP			IndexPIP			IndexTip			MiddleMCP			MiddlePIP			MiddleTip			RingMCP			RingPIP			RingTip			PinkyMCP			PinkyPIP			PinkyTip			BackHand1			BackHand2			BackHand3	
		X0	Y0	Z0	X1	Y1	Z1	X2	Y2	Z2	X3	Y3	Z3	X4	Y4	Z4	X5	Y5	Z5	X6	Y6	Z6	X7	Y7	Z7	X8	Y8	Z8	X9	Y9	Z9	X10	Y10	Z10	X11	Y11	Z11	X12	Y12	Z12	X13	Y13	Z13	X14	Y14	Z14	X15	Y15	Z15	X16	Y16	Z16	X17	Y17	Z17	X18	Y18	Z18	
250	2.08333	109.24	-9.25665	56.4989	92.7557	15.2336	37.6036	65.0853	25.7496	14.9636	38.4292	21.3765	7.67506	63.4611	-40.7421	-8.52091	39.3769	-36.0845	-20.8966	15.0449	-16.7616	-25.2802	46.0871	-58.1371	1.42966	14.7473	-46.3968	-15.5045	-9.77123	-18.9862	-13.3653	31.0574	-66.3122	20.0623	5.32509	-54.6338	4.55581	-15.5103	-25.2286	1.10755	24.4571	-68.5216	40.2594	-0.133727	-57.8198	23.0173	-16.5896	-36.5255	14.9799	77.0923	-72.3555	62.6706	94.6606	-71.2674	87.071	106.251	-52.2606	53.2466	
251	2.09167	111.527	-8.54309	57.4481	92.7847	12.3916	39.7562	66.9752	24.4608	18.4829	38.3873	21.0012	5.15651	68.388	-40.9656	-5.01059	41.2405	-32.9845	-25.7587	11.5746	-15.6997	-26.3376	48.4104	-57.5199	0.444263	15.3381	-45.369	-16.0655	-8.09431	-19.6146	-16.2916	31.6	-64.1299	17.1095	4.29752	-54.2495	4.75469	-13.741	-24.3852	0.76513	23.2632	-69.1303	40.3518	1.31726	-55.4509	22.8336	-15.8282	-36.4126	11.3977	75.5308	-73.3109	60.0178	91.1768	-73.1897	88.8817	105.358	-52.585	54.6701	
252	2.1	110.45	-8.37042	58.7299	92.3406	13.1735	35.7933	66.7161	25.1841	16.5164	41.4128	22.8674	8.99354	65.8119	-44.6446	-3.0802	40.8886	-35.488	-24.7523	14.7217	-15.5446	-30.979	46.4735	-58.0748	0.948941	16.2732	-48.3541	-14.5042	-9.23287	-16.7434	-14.8139	31.1033	-63.058	17.6265	4.63098	-52.721	4.13162	-14.3094	-23.4386	0.133288	26.0468	-65.5401	37.9361	0.607516	-56.475	24.064	-17.451	-37.84	13.713	73.9337	-74.8581	63.0793	91.6042	-74.2248	90.5894	104.922	-54.6603	56.9503	
253	2.10833	110.116	-8.95634	56.5339	94.0309	12.6893	40.3343	66.7782	26.5808	13.5121	41.3443	25.2932	3.41632	68.693	-41.936	-6.35773	43.9221	-35.0342	-26.6144	19.9585	-18.511	-32.613	47.8533	-56.005	-0.00436656	13.9749	-44.917	-16.1299	-8.77079	-16.2472	-16.7404	29.2723	-63.335	17.2228	7.10885	-50.3147	3.88102	-12.7286	-22.1137	-0.689567	23.6825	-66.3242	40.4662	3.62551	-56.0366	23.7688	-16.1071	-37.7307	12.3461	72.1146	-72.2029	62.1916	95.0756	-72.6764	87.9134	105.782	-54.8364	57.3781	
254	2.11667	110.235	-9.82755	60.5532	92.7213	12.0716	39.6931	68.4805	24.1435	17.0313	41.689	20.8374	7.40614	65.0718	-43.4219	-7.10817	44.0485	-36.2841	-23.8987	17.1375	-14.7497	-34.5349	48.2278	-55.928	0.738019	15.9862	-43.7722	-16.7613	-9.6729	-14.8658	-14.9629	30.2027	-62.3289	16.6337	6.22686	-48.7862	1.57529	-13.012	-20.1211	-0.485482	22.74	-67.6273	40.3127	3.33951	-51.7653	19.9543	-13.0714	-34.6912	12.5536	73.0112	-73.8952	65.2742	94.1759	-71.9461	85.8751	107.61	-52.5584	57.5346	
255	2.125	112.955	-7.92162	60.961	93.6746	13.3389	36.374	69.2304	27.8947	14.4267	41.1233	24.1332	3.45527	69.3695	-41.0855	-4.86808	44.9951	-33.863	-27.1993	16.8782	-15.0006	-34.6408	46.5651	-55.9533	-0.357779	16.5256	-44.0408	-15.9519	-6.80596	-18.484	-15.199	32.6956	-61.9136	18.6569	3.9364	-47.7332	1.57129	-11.2293	-22.0713	-0.471278	23.5353	-67.1947	40.3883	2.43587	-53.5264	22.2889	-12.2169	-35.4466	11.9048	72.5209	-71.5794	61.6063	95.5953	-71.6783	89.7189	107.409	-50.1963	55.3396	
256	2.13333	110.061	-9.31272	57.8506	93.2699	13.5465	38.5245	68.888	25.9305	16.307	44.7332	24.3115	8.19198	66.8811	-40.9538	-5.78767	47.0028	-33.818	-27.0006	19.155	-16.352	-33.3482	47.4447	-57.3985	2.96655	16.0605	-44.8403	-15.1461	-7.68384	-15.7563	-15.9079	32.3749	-60.4381	13.1774	5.31103	-51.3269	4.19903	-12.0412	-24.3244	-1.33368	22.9803	-66.0612	37.3898	3.22594	-51.4188	20.8659	-13.0533	-37.6285	12.4628	76.2741	-70.2567	60.7503	95.977	-71.9912	85.8066	107.706	-53.544	58.3591	
257	2.14167	113.87	-6.91819	59.7272	94.3777	12.892	40.1898	70.6389	28.5286	18.2316	43.8463	23.9929	7.51468	68.8426	-37.9863	-8.73358	41.5723	-32.4193	-26.5496	18.6511	-15.2637	-32.6642	49.0723	-54.9885	-1.89428	18.8802	-43.8658	-16.7413	-8.30725	-16.5529	-15.0876	33.7102	-61.7037	14.1387	5.96083	-50.9392	1.61281	-11.6028	-25.4656	-3.08426	23.9665	-65.1021	39.2187	3.24343	-54.3875	24.0302	-17.1887	-36.1806	11.7382	73.1458	-70.8225	59.4608	94.7808	-73.0608	86.0569	107.723	-51.6633	57.8393	
258	2.15	112.1	-7.30001	60.9895	94.9383	17.3753	36.2939	68.8482	28.52	17.8851	40.7056	25.7351	7.25528	68.8832	-39.8454	-6.36696	42.3776	-31.4478	-27.8119	19.5761	-16.4184	-31.5173	46.8421	-56.5793	0.831762	17.0549	-41.3635	-19.9263	-8.63413	-15.843	-15.6365	29.6282	-64.6124	15.0398	6.08841	-52.1599	-0.398383	-14.6708	-24.8928	-2.89086	26.8874	-64.1542	40.873	-0.540329	-55.4629	24.2717	-16.2981	-36.8133	10.5688	76.2739	-71.4514	59.6174	91.7889	-73.4214	86.8391	108.917	-51.432	54.4078	
259	2.15833	112.101	-6.72478	59.12	92.162	15.1867	38.9797	67.2326	28.103	19.3318	41.1279	28.0314	9.8714	69.4968	-36.7557	-10.4338	45.4851	-28.379	-28.7349	19.1193	-10.6218	-34.9595	45.0594	-56.2009	-2.0124	19.7241	-41.0435	-20.4257	-8.15917	-19.9816	-16.1617	35.3759	-62.7224	14.5388	9.3065	-54.2638	1.68903	-10.958	-27.918	-5.63159	23.2371	-66.4763	38.2484	-0.184564	-53.6995	21.2361	-15.4725	-40.1136	10.0273	73.3396	-72.7803	58.4426	92.7559	-72.2117	89.7026	110.412	-48.4706	55.9881	
260	2.16667	111.745	-4.69854	60.4965	92.8653	16.8681	42.4912	66.4241	31.3689	19.5125	38.1904	30.1314	7.74526	66.3979	-38.2348	-8.82726	45.0018	-30.773	-26.4904	18.5858	-10.0005	-33.5781	49.6652	-55.5943	0.688785	19.6804	-44.2225	-19.4814	-7.04092	-18.5974	-18.0931	33.7989	-62.1322	13.9613	8.23156	-52.2713	-1.45701	-13.626	-27.8112	-5.73879	22.9727	-66.4141	37.5034	1.82323	-55.6752	23.1789	-16.0895	-40.1237	11.6738	74.4007	-70.521	62.5058	94.411	-70.5523	88.1973	106.541	-51.2977	53.7725	
261	2.175	109.838	-6.8733	62.0793	88.9568	16.5649	39.7301	60.9466	27.507	18.9753	35.7876	23.4315	11.556	68.3825	-36.5341	-7.85499	49.1593	-26.8809	-28.7978	19.9002	-10.767	-32.7263	49.0433	-54.7366	-3.02077	17.8003	-44.1338	-17.7133	-8.29779	-15.9325	-18.2066	31.834	-62.9083	13.7901	7.73185	-54.2342	1.88854	-14.0152	-25.5701	-4.90922	26.829	-65.0778	40.9884	0.987346	-56.0089	23.6757	-15.7298	-36.0693	9.20399	74.156	-71.3613	60.0229	95.6231	-68.8771	86.3481	107.274	-48.9802	56.0585	
262	2.18333	108.409	-6.12959	58.9436	90.2044	18.0411	43.5187	63.679	31.0265	20.7547	35.6917	26.4339	11.5676	66.7555	-35.3178	-9.80341	44.6698	-27.9371	-25.8713	18.2897	-10.937	-32.359	46.008	-56.0596	0.239229	15.4083	-43.0419	-18.3096	-8.48664	-18.6316	-16.0718	32.9552	-62.9038	16.6142	6.69642	-50.2292	0.712257	-16.3678	-25.6027	-1.22699	23.9106	-64.8148	39.9815	1.93276	-55.129	24.3359	-15.8547	-39.0287	14.3096	73.3294	-72.0181	64.5541	94.3194	-72.8878	87.4333	105.657	-51.5237	54.0178	
263	2.19167	106.889	-6.71298	58.9385	88.8834	16.3759	41.5193	59.5635	26.6308	19.1308	34.9731	25.2717	10.4732	67.4819	-34.9482	-9.2848	45.9886	-24.3042	-28.742	21.726	-10.139	-32.7636	47.5357	-56.3487	1.93465	18.6222	-45.0144	-16.7068	-7.48932	-16.889	-18.2022	32.1765	-63.0586	15.6734	4.38477	-53.1654	3.67286	-15.6109	-27.7188	1.51015	23.5469	-66.0647	41.8268	0.113407	-53.3169	26.0294	-16.5103	-37.5113	14.1421	74.7169	-71.2151	62.312	95.2418	-72.4242	87.7248	106.43	-48.8672	57.5882	
264	2.2	110.373	-4.18075	62.6048	89.3757	16.2102	44.08	59.3769	26.897	19.4378	35.4005	23.3804	14.138	65.5955	-34.9218	-8.69641	46.383	-24.1218	-26.7448	18.6387	-10.7572	-29.841	46.3667	-56.1129	0.708882	16.2408	-44.9921	-17.0041	-10.841	-16.7982	-15.2428	30.6754	-64.191	18.4833	5.81002	-49.8572	2.29807	-18.1017	-23.3218	3.35377	24.424	-64.6394	40.6122	-0.0305733	-52.7242	25.5806	-18.2504	-31.6865	15.2843	73.1827	-72.7114	64.1074	93.8416	-70.8416	85.3163	106.27	-48.7159	57.2434	
265	2.20833	105.945	-7.94373	60.8769	87.9604	15.8855	40.9506	59.9403	27.7468	18.2117	32.8133	23.1725	9.64655	65.4698	-36.3404	-6.45154	44.3498	-26.3263	-26.1912	16.5712	-8.64117	-30.7038	44.9725	-55.589	-1.87461	17.1873	-43.7768	-16.4865	-11.0451	-19.2041	-12.8231	29.4074	-60.9476	16.6889	0.722698	-49.1341	4.48921	-15.2806	-25.0503	3.38093	19.3248	-66.1085	40.6745	0.806892	-53.4028	28.2636	-20.8519	-32.2196	20.9527	70.0499	-71.7429	59.653	95.6935	-71.8366	88.4712	106.603	-49.1208	55.7148	
266	2.21667	107.592	-5.17093	59.326	88.5054	15.4628	43.2307	62.2004	25.1934	22.1983	33.1925	24.1354	9.51221	67.2047	-37.1124	-3.30529	42.4607	-24.7462	-27.0281	16.5363	-10.4971	-29.281	44.1141	-55.868	-0.169131	15.7351	-43.0233	-17.5415	-8.28376	-17.0324	-15.992	30.4269	-59.8565	16.0134	2.70609	-50.7761	8.47551	-17.2692	-21.7948	5.43006	24.3074	-63.7039	42.3465	-3.49448	-52.5314	30.8083	-18.8921	-30.6692	18.0481	72.6448	-72.6438	61.2576	91.3774	-71.2932	85.8352	104.461	-49.3093	58.7117	
267	2.225	107.35	-7.55988	64.7255	88.8886	15.1485	42.0471	62.8281	27.1272	21.2564	35.9954	24.0287	12.1031	69.6434	-32.9601	-6.37611	43.6939	-28.0375	-24.0414	13.4615	-8.96539	-29.4456	46.9023	-54.0287	-0.976374	15.4035	-43.1868	-15.4851	-9.27974	-18.5261	-14.3164	28.7297	-60.6238	17.1315	3.71319	-45.4587	5.36283	-17.0722	-17.6257	5.04355	23.1353	-62.6561	42.1278	-1.69123	-51.4501	31.2158	-20.3261	-28.9482	20.5535	71.519	-72.6797	59.3217	93.3018	-72.837	86.0227	104.417	-48.8819	54.8151	
268	2.23333	110.354	-4.8435	64.3122	89.7443	19.1776	40.4931	64.8134	28.6587	23.2445	35.4863	24.7342	8.65689	65.4728	-35.7497	-7.51841	44.0992	-23.4486	-27.0531	17.7096	-8.40792	-30.7961	46.0481	-54.7239	0.694125	19.0629	-42.5077	-16.4156	-12.5588	-17.5413	-11.0226	28.9263	-59.0787	15.9877	3.73036	-44.1223	5.83656	-15.0361	-18.2736	6.4049	21.6142	-63.7728	42.7196	-3.07293	-47.9221	28.8813	-22.3714	-30.2005	22.3272	72.8854	-70.3754	59.0112	92.6689	-71.2006	89.9473	108.457	-46.6534	59.0466	
269	2.24167	106.329	-6.40225	63.2566	89.8404	16.63	41.6078	63.6379	29.16	21.1703	36.8001	25.5471	10.2485	69.3731	-31.9659	-6.83897	42.3704	-25.0126	-26.0568	17.5579	-11.488	-29.3622	49.9642	-52.3451	0.933905	14.6413	-42.7967	-15.3288	-13.0846	-17.7756	-11.1623	30.6335	-60.6848	20.156	5.49868	-46.8236	7.8078	-14.39	-20.9624	7.42767	20.1768	-64.8919	43.4936	-2.35663	-48.8305	31.3083	-21.3992	-29.8568	25.1627	74.9188	-71.163	59.0984	94.7757	-71.2154	85.362	108.468	-46.4746	56.7892	
270	2.25	110.406	-2.58212	60.9211	92.5419	20.8669	42.2045	65.9196	29.1064	23.9814	38.6864	25.1591	12.8121	67.4478	-33.8687	-5.61002	41.8563	-25.1079	-25.0503	17.5289	-10.7617	-29.9631	49.6255	-51.37	-0.435094	17.8014	-42.6379	-15.2623	-10.2813	-14.2613	-15.1765	29.5761	-59.2815	18.6335	2.99907	-43.7268	6.16543	-17.7993	-18.4687	6.63819	22.6828	-65.0073	43.9428	-1.70942	-51.2271	33.4082	-17.6557	-29.8251	23.6657	76.7905	-68.4084	62.6245	99.3403	-68.9811	87.3289	110.025	-47.702	58.9802	
271	2.25833	110.292	-1.78657	62.4085	91.9601	22.1929	41.513	65.8856	33.7252	21.6041	38.5231	25.8726	11.2294	68.5791	-30.9479	-5.32641	44.5761	-23.085	-25.7118	13.743	-7.85703	-29.8861	49.4868	-50.8206	0.628719	18.0451	-42.6905	-15.5946	-9.60718	-18.7356	-13.9852	32.0649	-60.0111	19.633	1.71017	-48.3503	9.03225	-17.3963	-23.1065	5.68772	24.0391	-63.5056	42.9869	-3.81414	-50.0041	32.0789	-19.4039	-33.8059	22.3696	77.2244	-69.2515	57.2704	96.1184	-69.7285	90.5839	110.65	-45.9564	56.6334	
